<svg width="31" height="32" viewBox="0 0 31 32" fill="none" xmlns="http://www.w3.org/2000/svg"><path d="M0 18.6C0 12.9 3.3 7.9 7.9 6c.8-.3 1.3-.3 1.6.3.3.3.3.8 0 1.6a11 11 0 0 0-.8 4.7c0 6.5 4.4 11 11.2 11 1.6 0 3-.4 4.3-.9.5-.3 1-.3 1.4 0 .2.3.5.8 0 1.6-2.2 5-6.6 7.7-12.3 7.7C5.7 31.7 0 26 0 18.6Zm22.3 6.6c-.5.2-2 .2-3 .2-7.6 0-12.8-4.9-12.8-12.5 0-1.4.3-2.8.6-3.9a11.7 11.7 0 0 0-4.4 9.3c0 6.3 4.4 11 10.9 11 3.5 0 6.8-1.4 8.7-4.1ZM17.4 6.8c-.5-2.4-.5-2.4-3-3-.3 0-.3 0-.3-.2 0-.3 0-.3.3-.3 2.7-.6 2.5-.6 3-3 0-.3.3-.3.3-.3.2 0 .2 0 .2.3.6 2.4.6 2.4 3 3 .3 0 .3.3.3.3s0 .2-.3.2c-2.7.6-2.7.6-3 3 0 .3-.2.3-.2.3-.3 0-.3 0-.3-.3Zm7 10.2c-.5-4.1-.5-4.1-4.8-5-.3 0-.6-.2-.6-.5s.3-.6.6-.6c4-.8 4.3-.8 4.9-4.9 0-.3.2-.5.5-.5s.6.2.6.5c.5 4.1.5 4.1 4.9 5 .2 0 .5.2.5.5s-.3.5-.5.5c-4.1.9-4.4.9-5 5 0 .2-.2.5-.5.5s-.5-.3-.5-.5Z" fill="white"/></svg>