<svg width="219" height="45" fill="none" xmlns="http://www.w3.org/2000/svg"><path d="M31.2 30.9h8.1c-1.1 4.5-3.4 8-6.8 10.4A20.9 20.9 0 0 1 19.8 45c-6.2 0-11-2-14.6-6C1.7 35 0 29.5 0 22.3A24 24 0 0 1 5 6c3.5-4 8.4-6 14.6-6C26 0 31.2 2 34.8 5.8c3.5 4 5.2 9.6 5.2 16.8v1.8c0 .5 0 .9-.2 1.1H11.6c.1 3.4 1 5.9 2.4 7.5 1.5 1.7 3.6 2.6 6.4 2.6 1.9 0 3.4-.4 4.7-1.2.4 0 .6-.2.9-.4l1-1c0-.3.4-.8 1-1.3.8-.6 1.9-.8 3.2-.8ZM11.6 18.2h16.6c-.2-3-1-5.1-2.2-6.5-1.5-1.5-3.5-2.3-6-2.3a8 8 0 0 0-6 2.3 9.3 9.3 0 0 0-2.4 6.5Z" fill="#3D9090"/><path d="M87.4 22.4c-1.5.8-3.6 1.5-6.3 2.1l-3.8.8c-2 .6-3.4 1.3-4.2 2.2a6.6 6.6 0 0 0-1.2 3.5c0 1.7.5 3 1.5 4 1 .8 2.4 1.2 4.2 1.2 3 0 5.5-.8 7.2-2.6a9.6 9.6 0 0 0 2.6-7.1v-4Zm2.6 20a19.2 19.2 0 0 1-7.3 2.1c-2.5.3-4.7.5-6.7.5-4 0-7.4-1-10.3-3-3-2.3-4.4-5.8-4.4-10.6 0-4.6 1.3-7.8 4-9.8a23.7 23.7 0 0 1 12.2-4A16 16 0 0 1 80 17c4.8-.7 7.2-2.1 7.2-4.3 0-1.6-1-2.6-2.7-3a12 12 0 0 0-8.7-.2c-1.1.4-2 1.2-2.5 2.4h-11c.5-3.3 2-6.1 4.6-8.3A19 19 0 0 1 79.6 0c6 0 10.7 1 13.7 3 3.2 2.3 4.7 5.3 4.7 9.2V27c0 4.3-.8 7.7-2.4 10.2a14 14 0 0 1-5.6 5.2Z" fill="#3D9090"/><path d="M119.2 29.9h11a6 6 0 0 0 2.5 4.9c1.7 1 3.8 1.6 6.6 1.6 2 0 3.6-.4 5-1.1 1.3-.8 2-1.8 2-3.1 0-2-2.3-3.4-6.9-4.4-2-.3-3.4-.7-4.4-1-5.8-1.4-9.6-3-11.6-5a10 10 0 0 1-3.3-7.8A13 13 0 0 1 125 3.7C128 1.2 132.4 0 137.6 0c5.7 0 10.2 1.2 13.6 3.7 3.1 2.7 4.8 6.3 5 10.6h-7c-2 0-3.6-1-4.7-2.8l-1.3-1.3a8.8 8.8 0 0 0-5.4-1.4c-2.2 0-3.8.3-5 1-.9.6-1.4 1.6-1.4 2.9 0 1.7 2.8 3.2 8.5 4.4l1.6.4c.6.2 1 .2 1.5.2 5.6 1.4 9.4 3 11.6 4.9 2 2 3.1 4.5 3.1 7.8a13 13 0 0 1-5.2 11 24.9 24.9 0 0 1-14.7 3.6c-6.2 0-10.8-1.2-13.9-3.7-3.2-2.5-4.7-6.2-4.7-11V30Z" fill="#3D9090"/><path d="M210.2 30.9h8.1c-1.2 4.5-3.4 8-6.8 10.4a20.9 20.9 0 0 1-12.7 3.7c-6.3 0-11-2-14.6-6-3.5-4-5.2-9.5-5.2-16.7A24 24 0 0 1 184 6c3.5-4 8.4-6 14.6-6 6.5 0 11.6 2 15.2 5.8 3.5 4 5.2 9.6 5.2 16.8v1.8c0 .5 0 .9-.2 1.1h-28.2c.1 3.4 1 5.9 2.4 7.5 1.5 1.7 3.6 2.6 6.4 2.6 1.9 0 3.4-.4 4.7-1.2.4 0 .6-.2.9-.4l1-1c0-.3.4-.8 1-1.3.8-.6 1.9-.8 3.2-.8Zm-19.6-12.7h16.6c-.2-3-1-5.1-2.2-6.5-1.5-1.5-3.5-2.3-6-2.3a8 8 0 0 0-6 2.3 9.3 9.3 0 0 0-2.4 6.5Z" fill="#3D9090"/></svg>