<svg width="33" height="34" viewBox="0 0 33 34" fill="none" xmlns="http://www.w3.org/2000/svg"><path d="M4.4 15.6c.8 0 1.4.6 1.4 1.4 0 .8-.6 1.4-1.4 1.4h-3C.6 18.4 0 17.8 0 17c0-.8.6-1.4 1.4-1.4h3Zm2.5 9.2c.5-.6 1.4-.6 1.9 0 .6.6.6 1.4 0 2L6.6 29c-.6.5-1.4.5-2 0-.5-.6-.5-1.4 0-2L7 24.8ZM4.7 7.2C4 6.7 4 6 4.7 5.3c.5-.6 1.3-.6 1.9 0l2.2 2.2c.6.6.6 1.4 0 2-.5.5-1.4.5-2 0L4.8 7.2ZM24.2 17a8 8 0 0 1-8 8 8 8 0 0 1-8-8 8 8 0 0 1 8-8c4.7.2 8 3.8 8 8ZM11 17c0 3 2.5 5.3 5.2 5.3 3 0 5.3-2.5 5.3-5.3 0-3-2.5-5.3-5.3-5.3A5.4 5.4 0 0 0 11 17Zm6.9-12.3c0 .9-.6 1.4-1.4 1.4-.8 0-1.4-.5-1.4-1.4V1.4c0-.8.6-1.4 1.4-1.4.8 0 1.4.6 1.4 1.4v3.3Zm0 28c0 .7-.6 1.3-1.4 1.3-.8 0-1.4-.6-1.4-1.4v-3c0-.9.6-1.5 1.4-1.5.8 0 1.4.6 1.4 1.4v3.1ZM26.4 5c.6-.5 1.4-.5 2 0 .5.6.5 1.4 0 2L26 9.2c-.5.6-1.3.6-1.9 0-.5-.6-.5-1.4 0-2L26.4 5Zm2 22c.5.6.5 1.4 0 2-.6.5-1.4.5-2 0l-2.2-2.2c-.5-.6-.5-1.4 0-2 .6-.6 1.4-.6 2 0l2.1 2.2Zm.2-8.6c-.8 0-1.4-.6-1.4-1.4 0-.8.6-1.4 1.4-1.4h3c.9 0 1.4.6 1.4 1.4 0 .8-.5 1.4-1.4 1.4h-3Z" fill="black"/></svg>